<?xml version="1.0" encoding="utf-8"?>
<svg version="1.1" id="Layer_1" xmlns="http://www.w3.org/2000/svg" xmlns:xlink="http://www.w3.org/1999/xlink" x="0px" y="0px"
	 viewBox="0 0 500 500" style="enable-background:new 0 0 500 500;" xml:space="preserve">
<style type="text/css">
	.st0{fill:#ED7983;}
</style>
<path class="st0" d="M0,407.8c0,1,0.1,2,0.1,3.2c0,1.3,0.1,2.6,0.2,3.8l0.3,3.3c0.7,6.5,2.1,12.8,4.1,18.7
	c4.4,13.5,11.7,25.5,21.7,35.6c9,9.1,19.2,16.1,30,20.5c10.8,4.6,22.4,7,34.8,7l0.3,0c6.3,0,12.6-0.7,18.4-1.9
	c17.6-3.5,33.1-11.9,46.1-24.9c2.1-2.1,4.1-4.3,6.1-6.7l39.4-39.7l45.4,45.7c17.9,18.1,39.5,27.2,64,27.2l1.6,0
	c19-0.2,36.2-5.6,50.5-15.7c5.3-3.6,10.4-7.8,15-12.4l87.1-87.7c2.3-2.3,4.5-4.8,6.8-7.7c15.3-17.4,23.5-38.7,23.6-61.7
	c0.1-25.1-9.5-48.1-27.7-66.5l-44.3-44.6l43.6-43.9c18.5-18.6,27.9-42,27.1-67.1c-0.3-22.5-7.4-42.3-20.9-58.8
	c-1.9-2.3-3.8-4.5-6-6.7C449.8,9.1,427.9,0,402.3,0H93.6C73.9,0,56.2,5.6,41,16.7c-5.2,3.5-10,7.5-13.9,11.6C9.4,45.7,0,68.8,0,95.1
	v311.4c0,0.3,0,0.6,0,0.9L0,407.8z M70.2,74c1.5-1.6,3.2-2.9,5.1-4.2l1.3-1c4.7-3.5,10.1-5.1,17-5.1h308.7c9.2,0,15.8,2.6,21.5,8.4
	c0.8,0.8,1.5,1.6,2.3,2.6c4.3,5.2,6.2,10.9,6.3,19c0.2,7.8-2.4,14-8.5,20.1L335,203.4l89.6,90.2c6.4,6.5,9.1,12.6,9.1,20.7
	c0,7.5-2.4,13.5-7.7,19.4l-1.2,1.5c-0.9,1.1-1.8,2.2-2.8,3.2L334.8,426c-1.8,1.8-3.6,3.4-6.1,5c-4.7,3.3-10.2,4.9-17,5l-0.8,0
	c-8.2,0-14.6-2.8-20.8-9.1l-88.6-89.2l-83.7,84.3l-2.3,2.6c-0.8,1-1.6,2-2.5,2.9c-4.3,4.3-9,6.9-15.1,8.1c-2,0.4-4.2,0.6-6.3,0.6
	h-0.6c-3.9,0-7.4-0.7-10.9-2.2c-3.6-1.5-7-3.9-10.3-7.2c-3-3-5-6.3-6.4-10.5c-0.5-1.5-0.9-3.1-1.1-4.8l-0.2-2.2c0-0.4,0-0.8,0-1.3
	c0-0.5,0-1-0.1-1.5l0-311.5C61.8,86.2,64.3,79.8,70.2,74z"/>
</svg>
